<svg width="23" height="23" viewBox="0 0 23 23" fill="none" xmlns="http://www.w3.org/2000/svg">
<path d="M11.2502 15.7031C11.4496 15.7031 11.6166 15.6357 11.7511 15.5009C11.8858 15.3662 11.9531 15.1992 11.9531 15V11.0156C11.9531 10.8164 11.8857 10.6494 11.7509 10.5145C11.616 10.3798 11.449 10.3125 11.2498 10.3125C11.0504 10.3125 10.8834 10.3798 10.7489 10.5145C10.6142 10.6494 10.5469 10.8164 10.5469 11.0156V15C10.5469 15.1992 10.6143 15.3662 10.7491 15.5009C10.884 15.6357 11.051 15.7031 11.2502 15.7031ZM11.25 8.70797C11.4645 8.70797 11.6444 8.63539 11.7895 8.49023C11.9347 8.34508 12.0073 8.16523 12.0073 7.9507C12.0073 7.73617 11.9347 7.55633 11.7895 7.41117C11.6444 7.26617 11.4645 7.19367 11.25 7.19367C11.0355 7.19367 10.8556 7.26617 10.7105 7.41117C10.5653 7.55633 10.4927 7.73617 10.4927 7.9507C10.4927 8.16523 10.5653 8.34508 10.7105 8.49023C10.8556 8.63539 11.0355 8.70797 11.25 8.70797ZM11.2516 20.1562C10.0198 20.1562 8.86187 19.9225 7.77797 19.455C6.69406 18.9875 5.75125 18.353 4.94953 17.5516C4.14781 16.7502 3.51305 15.8078 3.04523 14.7244C2.57758 13.6409 2.34375 12.4834 2.34375 11.2516C2.34375 10.0198 2.5775 8.86187 3.045 7.77797C3.5125 6.69406 4.14695 5.75125 4.94836 4.94953C5.74977 4.14781 6.69219 3.51305 7.77563 3.04523C8.85906 2.57758 10.0166 2.34375 11.2484 2.34375C12.4802 2.34375 13.6381 2.5775 14.722 3.045C15.8059 3.5125 16.7488 4.14695 17.5505 4.94836C18.3522 5.74977 18.987 6.69219 19.4548 7.77563C19.9224 8.85906 20.1562 10.0166 20.1562 11.2484C20.1562 12.4802 19.9225 13.6381 19.455 14.722C18.9875 15.8059 18.353 16.7488 17.5516 17.5505C16.7502 18.3522 15.8078 18.987 14.7244 19.4548C13.6409 19.9224 12.4834 20.1562 11.2516 20.1562ZM11.25 18.75C13.3438 18.75 15.1172 18.0234 16.5703 16.5703C18.0234 15.1172 18.75 13.3438 18.75 11.25C18.75 9.15625 18.0234 7.38281 16.5703 5.92969C15.1172 4.47656 13.3438 3.75 11.25 3.75C9.15625 3.75 7.38281 4.47656 5.92969 5.92969C4.47656 7.38281 3.75 9.15625 3.75 11.25C3.75 13.3438 4.47656 15.1172 5.92969 16.5703C7.38281 18.0234 9.15625 18.75 11.25 18.75Z" fill="#0EC99E"/>
</svg>
